<svg xmlns="http://www.w3.org/2000/svg" viewBox="0 0 200 240" fill="currentColor" aria-label="Scoutsymbolen">
  
  <g>
    
    <path d="M100 12&#xA;             C 92 38, 90 60, 90 92&#xA;             C 90 118, 95 138, 100 158&#xA;             C 105 138, 110 118, 110 92&#xA;             C 110 60, 108 38, 100 12 Z"></path>
    
    <path d="M38 32&#xA;             C 44 62, 52 86, 68 108&#xA;             C 78 122, 84 132, 82 152&#xA;             C 78 138, 70 132, 58 128&#xA;             C 44 124, 34 118, 30 102&#xA;             C 26 82, 28 58, 38 32 Z"></path>
    
    <path d="M162 32&#xA;             C 156 62, 148 86, 132 108&#xA;             C 122 122, 116 132, 118 152&#xA;             C 122 138, 130 132, 142 128&#xA;             C 156 124, 166 118, 170 102&#xA;             C 174 82, 172 58, 162 32 Z"></path>
    
    <ellipse cx="100" cy="170" rx="62" ry="10"></ellipse>
    
    <rect x="48" y="184" width="104" height="6"></rect>
    <rect x="54" y="196" width="92" height="6"></rect>
    
    <path d="M100 208&#xA;             C 94 216, 92 224, 96 232&#xA;             L 104 232&#xA;             C 108 224, 106 216, 100 208 Z"></path>
  </g>
</svg>